<mxfile host="app.diagrams.net" modified="2023-03-09T09:28:16.447Z" agent="5.0 (Windows NT 10.0; Win64; x64) AppleWebKit/537.36 (KHTML, like Gecko) Chrome/110.0.0.0 Safari/537.36" etag="qfvakyoFeoxez2eVNfo5" version="21.0.4" type="github" pages="2">
  <diagram name="第 1 页" id="f_gDGMo9qiMAa-pmCR99">
    <mxGraphModel dx="662" dy="797" grid="1" gridSize="10" guides="1" tooltips="1" connect="1" arrows="1" fold="1" page="0" pageScale="1" pageWidth="827" pageHeight="1169" math="0" shadow="0">
      <root>
        <mxCell id="0" />
        <mxCell id="1" parent="0" />
        <mxCell id="TbczyuSHu-BHBTqO3nHE-12" value="U-Net上采樣解碼器" style="rounded=0;whiteSpace=wrap;html=1;fillColor=none;align=center;labelPosition=center;verticalLabelPosition=bottom;verticalAlign=top;" vertex="1" parent="1">
          <mxGeometry x="80" y="-27.5" width="190" height="180" as="geometry" />
        </mxCell>
        <mxCell id="TbczyuSHu-BHBTqO3nHE-8" value="U-Net上采樣解碼器" style="rounded=0;whiteSpace=wrap;html=1;fillColor=none;align=center;labelPosition=center;verticalLabelPosition=bottom;verticalAlign=top;" vertex="1" parent="1">
          <mxGeometry x="290" y="-27.5" width="190" height="180" as="geometry" />
        </mxCell>
        <mxCell id="TbczyuSHu-BHBTqO3nHE-3" style="edgeStyle=orthogonalEdgeStyle;rounded=0;orthogonalLoop=1;jettySize=auto;html=1;exitX=0.5;exitY=1;exitDx=0;exitDy=0;entryX=0.5;entryY=0;entryDx=0;entryDy=0;" edge="1" parent="1" source="tRsaq3BOFz8xLVi7A-52-2" target="TbczyuSHu-BHBTqO3nHE-1">
          <mxGeometry relative="1" as="geometry" />
        </mxCell>
        <mxCell id="tRsaq3BOFz8xLVi7A-52-2" value="CNN特徵提取" style="rounded=0;whiteSpace=wrap;html=1;" vertex="1" parent="1">
          <mxGeometry x="90" y="-20" width="170" height="50" as="geometry" />
        </mxCell>
        <mxCell id="tRsaq3BOFz8xLVi7A-52-4" value="級聯上采樣特徵融合" style="rounded=0;whiteSpace=wrap;html=1;" vertex="1" parent="1">
          <mxGeometry x="300" y="72.5" width="170" height="70" as="geometry" />
        </mxCell>
        <mxCell id="TbczyuSHu-BHBTqO3nHE-4" style="edgeStyle=orthogonalEdgeStyle;rounded=0;orthogonalLoop=1;jettySize=auto;html=1;exitX=0.5;exitY=1;exitDx=0;exitDy=0;entryX=0.5;entryY=0;entryDx=0;entryDy=0;" edge="1" parent="1" source="TbczyuSHu-BHBTqO3nHE-1" target="TbczyuSHu-BHBTqO3nHE-2">
          <mxGeometry relative="1" as="geometry" />
        </mxCell>
        <mxCell id="TbczyuSHu-BHBTqO3nHE-1" value="特徵圖序列化" style="rounded=0;whiteSpace=wrap;html=1;" vertex="1" parent="1">
          <mxGeometry x="90" y="40" width="170" height="50" as="geometry" />
        </mxCell>
        <mxCell id="TbczyuSHu-BHBTqO3nHE-2" value="Transformer層特徵編碼" style="rounded=0;whiteSpace=wrap;html=1;" vertex="1" parent="1">
          <mxGeometry x="90" y="100" width="170" height="45" as="geometry" />
        </mxCell>
        <mxCell id="TbczyuSHu-BHBTqO3nHE-11" style="edgeStyle=orthogonalEdgeStyle;rounded=0;orthogonalLoop=1;jettySize=auto;html=1;entryX=0.5;entryY=0;entryDx=0;entryDy=0;" edge="1" parent="1" source="TbczyuSHu-BHBTqO3nHE-6" target="tRsaq3BOFz8xLVi7A-52-4">
          <mxGeometry relative="1" as="geometry" />
        </mxCell>
        <mxCell id="TbczyuSHu-BHBTqO3nHE-6" value="編碼特徵尺寸修正" style="rounded=0;whiteSpace=wrap;html=1;" vertex="1" parent="1">
          <mxGeometry x="300" y="-17.5" width="170" height="70" as="geometry" />
        </mxCell>
        <mxCell id="TbczyuSHu-BHBTqO3nHE-9" style="edgeStyle=orthogonalEdgeStyle;rounded=0;orthogonalLoop=1;jettySize=auto;html=1;exitX=1;exitY=0.5;exitDx=0;exitDy=0;entryX=0;entryY=0.5;entryDx=0;entryDy=0;" edge="1" parent="1" target="TbczyuSHu-BHBTqO3nHE-8">
          <mxGeometry relative="1" as="geometry">
            <mxPoint x="270.0000000000001" y="62.500000000000114" as="sourcePoint" />
          </mxGeometry>
        </mxCell>
      </root>
    </mxGraphModel>
  </diagram>
  <diagram id="cxPFoWoMwNU5XqI72DFa" name="第 2 页">
    <mxGraphModel dx="948" dy="728" grid="1" gridSize="10" guides="1" tooltips="1" connect="1" arrows="1" fold="1" page="0" pageScale="1" pageWidth="827" pageHeight="1169" math="0" shadow="0">
      <root>
        <mxCell id="0" />
        <mxCell id="1" parent="0" />
        <mxCell id="faUIM797OG_IzEMnaKyI-26" style="edgeStyle=orthogonalEdgeStyle;rounded=0;orthogonalLoop=1;jettySize=auto;html=1;exitX=1;exitY=0.5;exitDx=0;exitDy=0;entryX=0;entryY=0.5;entryDx=0;entryDy=0;" edge="1" parent="1" source="faUIM797OG_IzEMnaKyI-1" target="faUIM797OG_IzEMnaKyI-2">
          <mxGeometry relative="1" as="geometry" />
        </mxCell>
        <mxCell id="faUIM797OG_IzEMnaKyI-1" value="" style="rounded=0;whiteSpace=wrap;html=1;rotation=90;" vertex="1" parent="1">
          <mxGeometry x="-50" y="-120" width="30" height="200" as="geometry" />
        </mxCell>
        <mxCell id="faUIM797OG_IzEMnaKyI-27" style="edgeStyle=orthogonalEdgeStyle;rounded=0;orthogonalLoop=1;jettySize=auto;html=1;exitX=1;exitY=0.5;exitDx=0;exitDy=0;entryX=0;entryY=0.5;entryDx=0;entryDy=0;" edge="1" parent="1" source="faUIM797OG_IzEMnaKyI-2" target="faUIM797OG_IzEMnaKyI-3">
          <mxGeometry relative="1" as="geometry" />
        </mxCell>
        <mxCell id="faUIM797OG_IzEMnaKyI-2" value="" style="rounded=0;whiteSpace=wrap;html=1;rotation=90;" vertex="1" parent="1">
          <mxGeometry x="-50" y="-30" width="30" height="100" as="geometry" />
        </mxCell>
        <mxCell id="faUIM797OG_IzEMnaKyI-28" style="edgeStyle=orthogonalEdgeStyle;rounded=0;orthogonalLoop=1;jettySize=auto;html=1;exitX=1;exitY=0.5;exitDx=0;exitDy=0;entryX=0.5;entryY=0;entryDx=0;entryDy=0;" edge="1" parent="1" source="faUIM797OG_IzEMnaKyI-3" target="faUIM797OG_IzEMnaKyI-18">
          <mxGeometry relative="1" as="geometry" />
        </mxCell>
        <mxCell id="faUIM797OG_IzEMnaKyI-3" value="" style="rounded=0;whiteSpace=wrap;html=1;rotation=90;" vertex="1" parent="1">
          <mxGeometry x="-50" y="35" width="30" height="50" as="geometry" />
        </mxCell>
        <mxCell id="faUIM797OG_IzEMnaKyI-30" style="edgeStyle=orthogonalEdgeStyle;rounded=0;orthogonalLoop=1;jettySize=auto;html=1;exitX=1;exitY=0.5;exitDx=0;exitDy=0;" edge="1" parent="1" source="faUIM797OG_IzEMnaKyI-4">
          <mxGeometry relative="1" as="geometry">
            <mxPoint x="80" y="160" as="targetPoint" />
          </mxGeometry>
        </mxCell>
        <mxCell id="faUIM797OG_IzEMnaKyI-4" value="" style="rounded=0;whiteSpace=wrap;html=1;" vertex="1" parent="1">
          <mxGeometry x="-130" y="130" width="190" height="60" as="geometry" />
        </mxCell>
        <mxCell id="faUIM797OG_IzEMnaKyI-11" value="" style="rounded=0;whiteSpace=wrap;html=1;rotation=90;" vertex="1" parent="1">
          <mxGeometry x="100" y="80" width="30" height="50" as="geometry" />
        </mxCell>
        <mxCell id="faUIM797OG_IzEMnaKyI-12" value="" style="rounded=0;whiteSpace=wrap;html=1;rotation=90;" vertex="1" parent="1">
          <mxGeometry x="100" y="40" width="30" height="50" as="geometry" />
        </mxCell>
        <mxCell id="faUIM797OG_IzEMnaKyI-16" value="" style="rounded=0;whiteSpace=wrap;html=1;rotation=-90;" vertex="1" parent="1">
          <mxGeometry x="380" y="-40" width="30" height="200" as="geometry" />
        </mxCell>
        <mxCell id="faUIM797OG_IzEMnaKyI-17" value="" style="rounded=0;whiteSpace=wrap;html=1;rotation=90;" vertex="1" parent="1">
          <mxGeometry x="380" y="-80" width="30" height="200" as="geometry" />
        </mxCell>
        <mxCell id="faUIM797OG_IzEMnaKyI-29" style="edgeStyle=orthogonalEdgeStyle;rounded=0;orthogonalLoop=1;jettySize=auto;html=1;exitX=0.5;exitY=1;exitDx=0;exitDy=0;entryX=0.5;entryY=0;entryDx=0;entryDy=0;" edge="1" parent="1" source="faUIM797OG_IzEMnaKyI-18" target="faUIM797OG_IzEMnaKyI-4">
          <mxGeometry relative="1" as="geometry" />
        </mxCell>
        <mxCell id="faUIM797OG_IzEMnaKyI-18" value="" style="rounded=0;whiteSpace=wrap;html=1;" vertex="1" parent="1">
          <mxGeometry x="-95" y="90" width="120" height="20" as="geometry" />
        </mxCell>
        <mxCell id="faUIM797OG_IzEMnaKyI-31" style="edgeStyle=orthogonalEdgeStyle;rounded=0;orthogonalLoop=1;jettySize=auto;html=1;exitX=0;exitY=0.5;exitDx=0;exitDy=0;entryX=1;entryY=0.5;entryDx=0;entryDy=0;" edge="1" parent="1" source="faUIM797OG_IzEMnaKyI-19" target="faUIM797OG_IzEMnaKyI-11">
          <mxGeometry relative="1" as="geometry" />
        </mxCell>
        <mxCell id="faUIM797OG_IzEMnaKyI-19" value="" style="rounded=0;whiteSpace=wrap;html=1;rotation=90;" vertex="1" parent="1">
          <mxGeometry x="105" y="126.48" width="20" height="67.03" as="geometry" />
        </mxCell>
        <mxCell id="faUIM797OG_IzEMnaKyI-22" value="" style="rounded=0;whiteSpace=wrap;html=1;" vertex="1" parent="1">
          <mxGeometry x="-115" y="138.24" width="15" height="43.51" as="geometry" />
        </mxCell>
        <mxCell id="faUIM797OG_IzEMnaKyI-23" value="" style="rounded=0;whiteSpace=wrap;html=1;" vertex="1" parent="1">
          <mxGeometry x="-92" y="138.24" width="15" height="43.51" as="geometry" />
        </mxCell>
        <mxCell id="faUIM797OG_IzEMnaKyI-24" value="" style="rounded=0;whiteSpace=wrap;html=1;" vertex="1" parent="1">
          <mxGeometry x="-70" y="138.24" width="15" height="43.51" as="geometry" />
        </mxCell>
        <mxCell id="faUIM797OG_IzEMnaKyI-25" value="" style="rounded=0;whiteSpace=wrap;html=1;" vertex="1" parent="1">
          <mxGeometry x="25" y="138.24" width="15" height="43.51" as="geometry" />
        </mxCell>
        <mxCell id="faUIM797OG_IzEMnaKyI-32" value="" style="rounded=1;whiteSpace=wrap;html=1;fillColor=none;dashed=1;dashPattern=8 8;" vertex="1" parent="1">
          <mxGeometry x="80" y="40" width="70" height="90" as="geometry" />
        </mxCell>
        <mxCell id="faUIM797OG_IzEMnaKyI-34" value="" style="rounded=0;whiteSpace=wrap;html=1;rotation=90;" vertex="1" parent="1">
          <mxGeometry x="240" y="160" width="30" height="50" as="geometry" />
        </mxCell>
        <mxCell id="faUIM797OG_IzEMnaKyI-35" value="" style="rounded=0;whiteSpace=wrap;html=1;rotation=90;" vertex="1" parent="1">
          <mxGeometry x="240" y="120" width="30" height="50" as="geometry" />
        </mxCell>
        <mxCell id="faUIM797OG_IzEMnaKyI-36" value="" style="rounded=1;whiteSpace=wrap;html=1;fillColor=none;dashed=1;dashPattern=8 8;" vertex="1" parent="1">
          <mxGeometry x="220" y="120" width="70" height="90" as="geometry" />
        </mxCell>
      </root>
    </mxGraphModel>
  </diagram>
</mxfile>
